<?xml version="1.0" encoding="UTF-8"?>
<svg width="900" height="360" viewBox="0 0 900 360" xmlns="http://www.w3.org/2000/svg" role="img" aria-label="TOGT operator flow C→K→F→U">
  <style>
    .box { rx:8; ry:8; stroke-width:2px; font-family: Arial, Helvetica, sans-serif; }
    .title { font-weight:700; font-size:14px; }
    .body { font-size:12px; }
    .arrow { stroke:#333; stroke-width:2; fill:none; marker-end:url(#arrowhead); }
    .note { font-size:11px; fill:#333; }
  </style>

  <defs>
    <marker id="arrowhead" markerWidth="10" markerHeight="7" refX="10" refY="3.5" orient="auto">
      <polygon points="0 0, 10 3.5, 0 7" fill="#333"/>
    </marker>
  </defs>

  <!-- Boxes -->
  <rect x="30"  y="40"  width="200" height="120" rx="10" ry="10" fill="#f8f3d4" stroke="#b8860b" class="box"/>
  <text x="40" y="70" class="title">C Contact Injection</text>
  <text x="40" y="92" class="body">Input: odd n</text>
  <text x="40" y="112" class="body">Action: C(n) = 3n + 1</text>

  <rect x="270" y="40"  width="200" height="120" rx="10" ry="10" fill="#e8f4f8" stroke="#0b6b8a" class="box"/>
  <text x="280" y="70" class="title">K Kernel Valuation</text>
  <text x="280" y="92" class="body">Input: even m</text>
  <text x="280" y="112" class="body">Action: K(m) = (k, v&#x2082;(m))</text>

  <rect x="510" y="40"  width="200" height="120" rx="10" ry="10" fill="#f4e8f8" stroke="#6b0b8a" class="box"/>
  <text x="520" y="70" class="title">F Flux Dissipation</text>
  <text x="520" y="92" class="body">Input: (k, v)</text>
  <text x="520" y="112" class="body">Action: h(k) &#x2212; v&#x00B7;log 2</text>

  <rect x="750" y="40"  width="120" height="120" rx="10" ry="10" fill="#e8f8ea" stroke="#0b8a3f" class="box"/>
  <text x="760" y="70" class="title">U Update</text>
  <text x="760" y="92" class="body">Input: (k, h')</text>
  <text x="760" y="112" class="body">Action: next odd</text>

  <!-- Macro-step box -->
  <rect x="300" y="200" width="300" height="90" rx="8" ry="8" fill="#ffffff" stroke="#333" stroke-dasharray="6,4"/>
  <text x="320" y="230" class="title">Macro-step T</text>
  <text x="320" y="252" class="body">T(n) = U &#x2218; F &#x2218; K &#x2218; C</text>
  <text x="320" y="270" class="body">T(n) = (3n+1) / 2^v&#x2082;(3n+1)</text>

  <!-- Arrows between operators -->
  <path d="M230 100 L270 100" class="arrow"/>
  <text x="240" y="88" class="note">3n+1</text>

  <path d="M470 100 L510 100" class="arrow"/>
  <text x="478" y="88" class="note">(k, v)</text>

  <path d="M710 100 L750 100" class="arrow"/>
  <text x="714" y="88" class="note">h' = h(k)&#x2212;v&#x00B7;log 2</text>

  <!-- U output arrow down into macro-step box -->
  <path d="M810 160 L650 160 L650 200" class="arrow"/>
  <text x="700" y="152" class="note">next odd kernel</text>

  <!-- iterate arrow from macro-step back toward C -->
  <path d="M300 245 L130 245 L130 160" class="arrow"/>
  <text x="148" y="238" class="note">iterate</text>

  <!-- Footer note -->
  <text x="30" y="330" class="note">Data tokens shown above are the values passed between operators. Bridge 0: local dissipation control does not yet imply global closure.</text>
</svg>
